<svg width="60" height="60" viewBox="0 0 60 60" fill="none" xmlns="http://www.w3.org/2000/svg">
<path d="M41.8464 22.1991V16.7443C42.5698 16.4064 43.1824 15.8709 43.6132 15.1999C44.0441 14.529 44.2755 13.7499 44.2808 12.9531V12.8247C44.2777 11.7107 43.8329 10.6431 43.0434 9.85523C42.2539 9.06732 41.1839 8.62308 40.0672 8.61954H39.9384C38.822 8.62307 37.7523 9.06705 36.9629 9.85455C36.1734 10.642 35.7283 11.7091 35.7248 12.8228V12.9512C35.7292 13.7433 35.9572 14.5181 36.3827 15.1869C36.8081 15.8557 37.4138 16.3915 38.1304 16.7328L38.1554 16.7443V22.2106C36.0641 22.5275 34.0951 23.3941 32.4507 24.7215L32.4738 24.7023L17.4331 13.0202C17.7195 11.9501 17.6249 10.8139 17.1654 9.80559C16.706 8.79723 15.9102 7.97906 14.9136 7.49058C13.9171 7.00209 12.7815 6.87353 11.7006 7.12682C10.6197 7.38011 9.66026 7.99956 8.98597 8.87956C8.31168 9.75956 7.96425 10.8456 8.00291 11.9526C8.04157 13.0595 8.46394 14.1188 9.19799 14.9499C9.93204 15.7809 10.9323 16.3323 12.0283 16.5099C13.1243 16.6875 14.2481 16.4804 15.2082 15.924L15.1851 15.9355L29.9741 27.4182C28.6692 29.3747 27.9752 31.6732 27.9797 34.0231C27.9739 36.5004 28.7445 38.9175 30.1835 40.9365L30.1585 40.8982L25.6586 45.3889C25.2982 45.2738 24.9226 45.2124 24.5442 45.2068H24.5404C23.7678 45.2068 23.0126 45.4354 22.3702 45.8635C21.7278 46.2917 21.2272 46.9002 20.9315 47.6123C20.6359 48.3243 20.5585 49.1077 20.7092 49.8636C20.86 50.6195 21.232 51.3138 21.7783 51.8587C22.3246 52.4037 23.0206 52.7748 23.7783 52.9251C24.536 53.0755 25.3214 52.9983 26.0352 52.7034C26.749 52.4085 27.359 51.909 27.7883 51.2682C28.2175 50.6274 28.4466 49.8741 28.4466 49.1034C28.4407 48.7158 28.3759 48.3313 28.2544 47.963L28.264 47.9898L32.7159 43.5489C34.1669 44.6534 35.8514 45.4132 37.6411 45.7706C39.4308 46.128 41.2786 46.0735 43.0441 45.6113C44.8095 45.1491 46.446 44.2913 47.8291 43.1033C49.2122 41.9152 50.3055 40.4282 51.0258 38.7552C51.7461 37.0823 52.0744 35.2675 51.9858 33.4489C51.8973 31.6303 51.3941 29.8558 50.5145 28.2604C49.635 26.665 48.4024 25.2907 46.9103 24.2421C45.4182 23.1934 43.706 22.498 41.904 22.2087L41.8348 22.1991H41.8464ZM39.9941 40.1737C38.7766 40.1702 37.5874 39.807 36.5768 39.1298C35.5661 38.4526 34.7792 37.4919 34.3156 36.3689C33.8519 35.2458 33.7323 34.011 33.9718 32.8202C34.2113 31.6294 34.7991 30.5361 35.6611 29.6784C36.5231 28.8206 37.6205 28.237 38.8148 28.001C40.0092 27.7651 41.2468 27.8875 42.3714 28.3528C43.496 28.8181 44.4572 29.6054 45.1335 30.6153C45.8099 31.6252 46.171 32.8124 46.1714 34.0269V34.0307C46.1717 34.838 46.0125 35.6374 45.7029 36.3833C45.3933 37.1292 44.9394 37.8069 44.3672 38.3777C43.795 38.9485 43.1156 39.4013 42.3679 39.7101C41.6202 40.0189 40.8188 40.1777 40.0095 40.1775L39.9941 40.1737Z" fill="#F9F9F9"/>
</svg>
