<svg width="60" height="60" viewBox="0 0 60 60" fill="none" xmlns="http://www.w3.org/2000/svg">
<path d="M18.8976 29.5L14 24.2557L16.1054 22L21 27.2475L25.8946 22L28 24.2557L23.1024 29.5L28 34.7443L25.8946 37L21 31.7525L16.1054 37L14 34.7443L18.8976 29.5Z" fill="#F9F9F9"/>
<path fill-rule="evenodd" clip-rule="evenodd" d="M17.9667 6C16.7201 6 15.5247 6.49518 14.6433 7.3766C13.7618 8.25802 13.2667 9.45348 13.2667 10.7V15.4H11.7C10.4535 15.4 9.25802 15.8952 8.3766 16.7766C7.49518 17.658 7 18.8535 7 20.1L7 38.9C7 40.1465 7.49518 41.342 8.3766 42.2234C9.25802 43.1048 10.4535 43.6 11.7 43.6H13.2667V48.3C13.2667 49.5465 13.7618 50.742 14.6433 51.6234C15.5247 52.5048 16.7201 53 17.9667 53H49.3C50.5465 53 51.742 52.5048 52.6234 51.6234C53.5048 50.742 54 49.5465 54 48.3V10.7C54 9.45348 53.5048 8.25802 52.6234 7.3766C51.742 6.49518 50.5465 6 49.3 6H17.9667ZM11.7 18.5333C11.2845 18.5333 10.886 18.6984 10.5922 18.9922C10.2984 19.286 10.1333 19.6845 10.1333 20.1V38.9C10.1333 39.3155 10.2984 39.714 10.5922 40.0078C10.886 40.3016 11.2845 40.4667 11.7 40.4667H30.5C30.9155 40.4667 31.314 40.3016 31.6078 40.0078C31.9016 39.714 32.0667 39.3155 32.0667 38.9V20.1C32.0667 19.6845 31.9016 19.286 31.6078 18.9922C31.314 18.6984 30.9155 18.5333 30.5 18.5333H11.7Z" fill="#F9F9F9"/>
</svg>
