<svg width="60" height="60" viewBox="0 0 60 60" fill="none" xmlns="http://www.w3.org/2000/svg">
<path d="M18.75 31.875V27.1505C18.75 23.8819 21.6647 21.0938 25.0233 21.0938H34.9148C37.6683 21.0938 39.375 18.7313 39.375 15.9666V6.53673C39.375 3.85267 37.3566 1.83704 34.6687 1.38938C33.0048 1.1111 31.32 0.975919 29.633 0.985322C27.9403 0.993291 26.1928 1.1372 24.7702 1.38938C20.5791 2.12907 19.6875 3.67876 19.6875 6.53673V10.3125H29.5312V11.7188H16.3552C13.477 11.7188 10.957 13.3734 10.1686 16.665C9.25968 20.437 9.21937 22.8534 10.1686 26.7924C10.8727 29.7239 12.5541 31.875 15.4317 31.875H18.75ZM24.4003 7.79438C23.3737 7.79438 22.5422 6.95298 22.5422 5.91329C22.5422 4.86845 23.3733 4.02001 24.4003 4.02001C25.4231 4.02001 26.2584 4.86892 26.2584 5.91329C26.2584 6.95298 25.4231 7.79438 24.4003 7.79438ZM49.7695 16.665C49.0584 13.7991 47.6995 11.7188 44.8181 11.7188H40.7812V15.9666C40.7812 19.3758 38.2106 22.5 34.9148 22.5H25.0233C22.3139 22.5 19.6875 24.5639 19.6875 27.278V36.7078C19.6875 39.3914 22.2131 40.9702 24.8316 41.7394C27.9656 42.6614 30.8226 42.8278 34.5731 41.7394C37.0659 41.0175 39.375 39.5653 39.375 36.7078V33.2813H29.5312V31.875H44.8176C47.6958 31.875 48.7683 29.805 49.7691 26.7924C50.8031 23.6902 50.7591 20.6447 49.7695 16.665ZM35.5378 35.4492C36.5644 35.4492 37.3964 36.2906 37.3964 37.3313C37.3964 38.3752 36.5648 39.2236 35.5378 39.2236C34.515 39.2236 33.6802 38.3747 33.6802 37.3313C33.6802 36.2906 34.515 35.4492 35.5378 35.4492ZM16.3645 52.523C16.3645 50.762 15.8623 49.8572 14.858 49.8084C14.4589 49.7886 14.0602 49.8539 13.6884 50.0002C13.3859 50.1083 13.1811 50.2164 13.0739 50.3245V54.5283C13.7167 54.9314 14.2869 55.1184 14.7844 55.0894C15.8375 55.0206 16.3642 54.1652 16.3645 52.523ZM17.6034 52.5966C17.6041 53.4913 17.3934 54.2339 16.9716 54.8245C16.5012 55.4933 15.8494 55.8372 15.0159 55.8563C14.3878 55.8759 13.7406 55.6794 13.0744 55.2666V59.0874L11.9972 58.703V50.2219C12.1741 50.0056 12.4008 49.8188 12.6773 49.6613C13.3189 49.2872 14.0981 49.0953 15.015 49.0856L15.0305 49.1006C15.8686 49.0903 16.5145 49.4342 16.9683 50.1324C17.3914 50.7724 17.6031 51.5938 17.6034 52.5966ZM24.1889 55.1039C24.1889 56.3039 24.0686 57.1349 23.828 57.5967C23.5861 58.0592 23.1259 58.4278 22.4475 58.7025C21.8972 58.9191 21.3022 59.0374 20.6625 59.0574L20.4844 58.3786C21.1341 58.2902 21.5916 58.2017 21.8569 58.1133C22.3787 57.9364 22.7378 57.6661 22.9341 57.3024C23.0916 57.007 23.1702 56.4417 23.1698 55.6064V55.3256C22.443 55.6579 21.6529 55.8287 20.8537 55.8263C20.3228 55.8266 19.8556 55.6597 19.4522 55.3256C18.9994 54.9613 18.773 54.4991 18.773 53.9391V49.455L19.8506 49.0861V53.6002C19.8506 54.082 20.0062 54.4533 20.3175 54.7139C20.7844 55.1049 21.0319 55.0992 21.5259 55.0903C22.0203 55.08 22.5487 54.8881 23.1112 54.5147V49.2488H24.1889V55.1039ZM28.395 55.7972C28.2769 55.8067 28.1586 55.8117 28.0402 55.8122C27.4305 55.8122 26.9558 55.6669 26.6161 55.3763C26.2773 55.0847 26.108 54.6827 26.108 54.1702V49.9261H25.3702V49.2483H26.108V47.4483L27.1842 47.0653V49.2483H28.395V49.9261H27.1842V54.1406C27.1842 54.5453 27.2927 54.8313 27.5095 54.9984C27.6961 55.1366 27.9912 55.2156 28.395 55.2356V55.7972ZM34.9186 55.7086H33.8414V51.5494C33.8414 51.1263 33.7428 50.7624 33.5456 50.4577C33.3184 50.1136 33.0022 49.9414 32.5969 49.9411C32.1028 49.9411 31.485 50.2017 30.7434 50.723V55.7086H29.6662V45.7674L30.7434 45.4275V49.9552C31.4316 49.4542 32.1841 49.2036 33.0009 49.2033C33.5716 49.2033 34.0337 49.3952 34.3875 49.7789C34.7422 50.1624 34.9194 50.6394 34.9191 51.21V55.7086H34.9186ZM40.6458 52.3538C40.6458 51.6772 40.5176 51.118 40.2614 50.6761C39.957 50.1374 39.485 49.8533 38.8453 49.8239C37.6644 49.8927 37.0741 50.7383 37.0744 52.3608C37.0741 53.1045 37.1975 53.7258 37.4447 54.2245C37.7606 54.8602 38.2345 55.173 38.8664 55.163C40.0527 55.1536 40.6458 54.2172 40.6458 52.3538ZM41.8261 52.3608C41.8261 53.3239 41.58 54.1256 41.0878 54.7659C40.5469 55.4828 39.7995 55.8416 38.8458 55.8422C37.9008 55.8416 37.1628 55.4828 36.6319 54.7659C36.15 54.1256 35.9091 53.3239 35.9091 52.3608C35.9091 51.4558 36.1697 50.6934 36.6909 50.0738C37.2416 49.4156 37.9645 49.0864 38.8598 49.0861C39.7548 49.0864 40.483 49.4156 41.0442 50.0738C41.5651 50.6934 41.8258 51.4558 41.8261 52.3608ZM48.0033 55.7086H46.9256V51.3136C46.9256 50.8317 46.7806 50.4553 46.4906 50.1844C46.2006 49.9141 45.8144 49.7839 45.3319 49.7939C44.8203 49.8039 44.3334 49.9709 43.8712 50.295V55.7086H42.7936V50.1619C43.4136 49.7103 43.9842 49.4156 44.5055 49.2778C44.9976 49.1497 45.4306 49.0856 45.8044 49.0856C46.06 49.0856 46.3009 49.1103 46.5272 49.1597C46.9503 49.2575 47.2945 49.4394 47.5598 49.7053C47.8555 50 48.0033 50.3542 48.0033 50.768V55.7086Z" fill="#F9F9F9"/>
</svg>
