<svg width="60" height="60" viewBox="0 0 60 60" fill="none" xmlns="http://www.w3.org/2000/svg">
<path d="M10.3125 28.125H49.6875C49.9361 28.125 50.1746 28.0262 50.3504 27.8504C50.5262 27.6746 50.625 27.4361 50.625 27.1875V20.625C50.6252 20.3787 50.5769 20.1348 50.4828 19.9072C50.3887 19.6795 50.2506 19.4727 50.0766 19.2984L36.9516 6.17344C36.7773 5.99937 36.5705 5.86135 36.3428 5.76724C36.1152 5.67314 35.8713 5.62481 35.625 5.625H13.125C12.1304 5.625 11.1766 6.02009 10.4733 6.72335C9.77009 7.42661 9.375 8.38044 9.375 9.375V27.1875C9.375 27.4361 9.47377 27.6746 9.64959 27.8504C9.8254 28.0262 10.0639 28.125 10.3125 28.125ZM35.625 10.3125L45.9375 20.625H35.625V10.3125ZM53.4375 48.8742C53.3956 49.3562 53.173 49.8044 52.8143 50.1291C52.4557 50.4538 51.9876 50.631 51.5039 50.625H45C44.5027 50.625 44.0258 50.4275 43.6742 50.0758C43.3225 49.7242 43.125 49.2473 43.125 48.75V35.6883C43.119 35.2046 43.2962 34.7365 43.6209 34.3778C43.9456 34.0192 44.3938 33.7966 44.8758 33.7547C45.1323 33.7377 45.3895 33.7735 45.6315 33.8601C45.8735 33.9467 46.0952 34.0821 46.2827 34.2579C46.4701 34.4338 46.6195 34.6463 46.7214 34.8823C46.8233 35.1182 46.8756 35.3726 46.875 35.6297V46.8797H51.5625C51.8191 46.8792 52.0731 46.9313 52.3088 47.0329C52.5444 47.1346 52.7567 47.2835 52.9324 47.4704C53.1082 47.6574 53.2437 47.8785 53.3306 48.1199C53.4175 48.3614 53.4539 48.6181 53.4375 48.8742ZM21.5203 46.0102C21.4472 46.7273 21.2162 47.4193 20.8438 48.0365C20.4713 48.6537 19.9668 49.1807 19.3664 49.5797C18.15 50.3906 16.6406 50.625 15.2672 50.625C14.0694 50.6188 12.8771 50.4613 11.7188 50.1562C11.2455 50.0176 10.8459 49.6982 10.6065 49.2671C10.3671 48.8359 10.3072 48.3279 10.4398 47.8529C10.5723 47.3779 10.8866 46.9743 11.3146 46.7294C11.7427 46.4845 12.2499 46.4181 12.7266 46.5445C13.7531 46.8258 16.2305 47.1773 17.3086 46.4602C17.5172 46.3219 17.7375 46.1039 17.8102 45.5391C17.8922 44.9133 17.6438 44.5781 14.8148 43.7602C12.6234 43.1273 8.95547 42.0656 9.42422 38.3438C9.49717 37.6407 9.72398 36.9623 10.0885 36.3568C10.4531 35.7512 10.9464 35.2333 11.5336 34.8398C14.3086 32.9648 18.7336 34.0641 19.2281 34.193C19.4664 34.2558 19.6899 34.3649 19.8859 34.514C20.082 34.6632 20.2468 34.8495 20.3708 35.0624C20.4949 35.2752 20.5758 35.5104 20.6089 35.7546C20.6421 35.9987 20.6269 36.2469 20.5641 36.4852C20.5013 36.7234 20.3922 36.9469 20.243 37.143C20.0938 37.339 19.9075 37.5038 19.6947 37.6279C19.4818 37.7519 19.2466 37.8328 19.0025 37.866C18.7584 37.8991 18.5101 37.8839 18.2719 37.8211C17.2195 37.5469 14.7047 37.2211 13.6266 37.9523C13.4852 38.0477 13.3689 38.1756 13.2873 38.3253C13.2057 38.475 13.1613 38.6421 13.1578 38.8125C13.1297 39.0234 13.125 39.0656 13.4203 39.2578C13.9617 39.607 14.9297 39.8859 15.8695 40.1578C18.1641 40.8211 22.0453 41.9531 21.5203 46.0102ZM38.1609 46.7672C38.9606 45.3736 39.3793 43.7942 39.375 42.1875C39.375 37.5352 36.0117 33.75 31.875 33.75C27.7383 33.75 24.375 37.5352 24.375 42.1875C24.375 46.8398 27.7383 50.625 31.875 50.625C33.1994 50.62 34.4939 50.2308 35.6016 49.5047L36.1734 50.0766C36.3557 50.2587 36.5736 50.4014 36.8135 50.4956C37.0534 50.5898 37.3101 50.6335 37.5677 50.6241C37.8252 50.6146 38.078 50.5522 38.3104 50.4406C38.5427 50.3291 38.7495 50.1708 38.918 49.9758C39.2256 49.604 39.3817 49.13 39.3552 48.6482C39.3287 48.1664 39.1215 47.7123 38.775 47.3766L38.1609 46.7672ZM31.875 46.875C29.8078 46.875 28.125 44.7656 28.125 42.1875C28.125 39.6094 29.8078 37.5 31.875 37.5C33.9422 37.5 35.625 39.6094 35.625 42.1875C35.6253 42.7851 35.532 43.379 35.3484 43.9477L35.1305 43.7297C34.7844 43.3731 34.3139 43.164 33.8174 43.1461C33.3208 43.1282 32.8365 43.3029 32.4656 43.6336C32.2825 43.8056 32.1358 44.0126 32.0342 44.2423C31.9326 44.4721 31.8782 44.7199 31.8743 44.9711C31.8703 45.2223 31.9169 45.4718 32.0113 45.7046C32.1056 45.9374 32.2458 46.149 32.4234 46.3266L32.8172 46.718C32.5133 46.8195 32.1954 46.8725 31.875 46.875Z" fill="#F9F9F9"/>
</svg>
